# xmcd
#
# Track frame offsets: 
#        150
#        17258
#        28733
#        42305
#        59147
#        71590
#        86786
#        101831
#        113021
#        122083
#        134228
#        148927
#        168073
#        183472
#        194197
#        205594
#        222366
#        234202
#        248295
#
# Disc length: 3588 seconds
#
# Revision: 0
# Processed by: cddbd v1.5.2PL0 Copyright (c) Steve Scherf et al.
# Submitted via: ExactAudioCopy v1.1
#
DISCID=1a0e0213
DTITLE=The Stonemans - Live! 107 Degrees And Getting Hotter!
DYEAR=2008
DGENRE=Bluegrass
TTITLE0=Live - Steel Guitar Rag
TTITLE1=Live - Red Bandana
TTITLE2=Live - Mama Don't Allow
TTITLE3=Live - The Poor Tramp Has To Live
TTITLE4=Live - Solider's Joy
TTITLE5=Live - But You Know I Love You
TTITLE6=Live - Sand Mountain
TTITLE7=Live - Jimmy's Thing
TTITLE8=Live - Dobro Chimes
TTITLE9=Live - Heartbreak Mountain
TTITLE10=Live - That's What You Get For Loving Me
TTITLE11=Live - Beyond The Sunset
TTITLE12=Live - Don't Think Twice
TTITLE13=Live - Truck Driving Man
TTITLE14=Live - Tennessee Walker
TTITLE15=Live - Wreck of the Old 97
TTITLE16=Live - Stoney's Waltz
TTITLE17=Live - John Henry
TTITLE18=Live - Soldier's Joy
EXTD=
EXTT0=
EXTT1=
EXTT2=
EXTT3=
EXTT4=
EXTT5=
EXTT6=
EXTT7=
EXTT8=
EXTT9=
EXTT10=
EXTT11=
EXTT12=
EXTT13=
EXTT14=
EXTT15=
EXTT16=
EXTT17=
EXTT18=
PLAYORDER=
